REM DIRINDEX 1\2\6,1\2\7,1\2\8,1\2\9,1\3\10,1\3\11,1\4\12,1\4\13,1\4\14,1\5\15,1\5\16,1\5\17
REM DIRNAME folder01,folder02,folder03,folder04,folder05,folder06,folder07,folder08,folder09,folder10,folder11,folder12,folder13,folder14,folder15,folder16,folder17
TITLE ""
FILE "1400_3_sec11_1034_1049.mp3" MP3
  TRACK 01 AUDIO
    TITLE "0:"
    INDEX 01 00:00:00
  TRACK 02 AUDIO
    TITLE "17:cjc029_6505"
    INDEX 01 00:00:15
  TRACK 03 AUDIO
    TITLE "0:"
    INDEX 01 00:01:34
  TRACK 04 AUDIO
    TITLE "16:cjc029_6506"
    INDEX 01 00:01:38
  TRACK 05 AUDIO
    TITLE "0:"
    INDEX 01 00:02:57
  TRACK 06 AUDIO
    TITLE "17:cjc029_6507"
    INDEX 01 00:03:45
  TRACK 07 AUDIO
    TITLE "0:"
    INDEX 01 00:04:52
  TRACK 08 AUDIO
    TITLE "16:cjc029_6508"
    INDEX 01 00:04:62
  TRACK 09 AUDIO
    TITLE "0:"
    INDEX 01 00:05:67
  TRACK 10 AUDIO
    TITLE "17:cjc029_6509"
    INDEX 01 00:06:53
  TRACK 11 AUDIO
    TITLE "0:"
    INDEX 01 00:09:00
  TRACK 12 AUDIO
    TITLE "16:cjc029_6510"
    INDEX 01 00:09:04
  TRACK 13 AUDIO
    TITLE "0:"
    INDEX 01 00:10:31
  TRACK 14 AUDIO
    TITLE "17:cjc029_6511"
    INDEX 01 00:11:15
  TRACK 15 AUDIO
    TITLE "0:"
    INDEX 01 00:14:13
  TRACK 16 AUDIO
    TITLE "16:cjc029_6512"
    INDEX 01 00:14:19
  TRACK 17 AUDIO
    TITLE "0:"
    INDEX 01 00:15:34
  TRACK 18 AUDIO
    TITLE "17:cjc029_6513"
    INDEX 01 00:16:18
  TRACK 19 AUDIO
    TITLE "0:"
    INDEX 01 00:18:66
  TRACK 20 AUDIO
    TITLE "16:cjc029_6514"
    INDEX 01 00:18:74
  TRACK 21 AUDIO
    TITLE "0:"
    INDEX 01 00:20:22
  TRACK 22 AUDIO
    TITLE "17:cjc029_6515"
    INDEX 01 00:21:06
  TRACK 23 AUDIO
    TITLE "0:"
    INDEX 01 00:24:16
  TRACK 24 AUDIO
    TITLE "16:cjc029_6516"
    INDEX 01 00:24:24
  TRACK 25 AUDIO
    TITLE "0:"
    INDEX 01 00:25:31
  TRACK 26 AUDIO
    TITLE "17:cjc029_6517"
    INDEX 01 00:26:17
  TRACK 27 AUDIO
    TITLE "0:"
    INDEX 01 00:27:43
  TRACK 28 AUDIO
    TITLE "16:cjc029_6518"
    INDEX 01 00:27:47
  TRACK 29 AUDIO
    TITLE "0:"
    INDEX 01 00:28:43
  TRACK 30 AUDIO
    TITLE "17:cjc029_6519"
    INDEX 01 00:29:29
  TRACK 31 AUDIO
    TITLE "0:"
    INDEX 01 00:31:10
  TRACK 32 AUDIO
    TITLE "16:cjc029_6520"
    INDEX 01 00:31:16
  TRACK 33 AUDIO
    TITLE "0:"
    INDEX 01 00:32:19
  TRACK 34 AUDIO
    TITLE "17:cjc029_6521"
    INDEX 01 00:33:07
  TRACK 35 AUDIO
    TITLE "0:"
    INDEX 01 00:34:24
  TRACK 36 AUDIO
    TITLE "16:cjc029_6522"
    INDEX 01 00:34:34
  TRACK 37 AUDIO
    TITLE "0:"
    INDEX 01 00:35:43
  TRACK 38 AUDIO
    TITLE "17:cjc029_6523"
    INDEX 01 00:36:29
  TRACK 39 AUDIO
    TITLE "0:"
    INDEX 01 00:37:67
  TRACK 40 AUDIO
    TITLE "16:cjc029_6524"
    INDEX 01 00:37:73
  TRACK 41 AUDIO
    TITLE "0:"
    INDEX 01 00:39:09
  TRACK 42 AUDIO
    TITLE "17:cjc029_6525"
    INDEX 01 00:39:68
  TRACK 43 AUDIO
    TITLE "0:"
    INDEX 01 00:41:04
  TRACK 44 AUDIO
    TITLE "16:cjc029_6526"
    INDEX 01 00:41:08
  TRACK 45 AUDIO
    TITLE "0:"
    INDEX 01 00:42:10
  TRACK 46 AUDIO
    TITLE "17:cjc029_6527"
    INDEX 01 00:42:70
  TRACK 47 AUDIO
    TITLE "0:"
    INDEX 01 00:44:73
  TRACK 48 AUDIO
    TITLE "16:cjc029_6528"
    INDEX 01 00:45:02
  TRACK 49 AUDIO
    TITLE "0:"
    INDEX 01 00:46:25
  TRACK 50 AUDIO
    TITLE "17:cjc029_6529"
    INDEX 01 00:47:09
  TRACK 51 AUDIO
    TITLE "0:"
    INDEX 01 00:48:24
  TRACK 52 AUDIO
    TITLE "16:cjc029_6530"
    INDEX 01 00:48:32
  TRACK 53 AUDIO
    TITLE "0:"
    INDEX 01 00:49:31
  TRACK 54 AUDIO
    TITLE "17:cjc029_6531"
    INDEX 01 00:50:15
  TRACK 55 AUDIO
    TITLE "0:"
    INDEX 01 00:52:24
  TRACK 56 AUDIO
    TITLE "16:cjc029_6532"
    INDEX 01 00:52:32
  TRACK 57 AUDIO
    TITLE "0:"
    INDEX 01 00:53:51
  TRACK 58 AUDIO
    TITLE "17:cjc029_6533"
    INDEX 01 00:54:34
  TRACK 59 AUDIO
    TITLE "0:"
    INDEX 01 00:55:51
  TRACK 60 AUDIO
    TITLE "16:cjc029_6534"
    INDEX 01 00:55:55
  TRACK 61 AUDIO
    TITLE "0:"
    INDEX 01 00:57:13
  TRACK 62 AUDIO
    TITLE "17:cjc029_6535"
    INDEX 01 00:57:70
  TRACK 63 AUDIO
    TITLE "0:"
    INDEX 01 00:59:04
  TRACK 64 AUDIO
    TITLE "16:cjc029_6536"
    INDEX 01 00:59:10
  TRACK 65 AUDIO
    TITLE "0:"
    INDEX 01 01:00:21
